<svg width="96" height="96" xmlns="http://www.w3.org/2000/svg" xmlns:xlink="http://www.w3.org/1999/xlink" overflow="hidden"><defs><clipPath id="clip0"><rect x="592" y="312" width="96" height="96"/></clipPath></defs><g clip-path="url(#clip0)" transform="translate(-592 -312)"><path d="M654.901 348.188C654.51 347.798 653.877 347.798 653.487 348.188L622.723 378.952C622.716 378.958 622.714 378.968 622.708 378.974L622.704 378.971C608.857 393.587 599.517 393.857 599.424 393.858L599.43 395.858C599.84 395.858 609.627 395.682 624.156 380.347L654.901 349.602C655.291 349.212 655.291 348.579 654.901 348.188Z" stroke="#D3435A" fill="#D3435A"/><path d="M660.154 345.48C663.292 345.48 668.766 344.929 672.224 341.47 677.301 336.393 676.82 326.267 676.82 326.267 676.82 326.267 676.564 326.255 676.112 326.255 673.724 326.255 665.886 326.595 661.618 330.863 656.541 335.941 657.729 345.36 657.729 345.36 658.534 345.446 659.344 345.486 660.154 345.48ZM663.032 332.278C666.193 329.117 671.859 328.425 674.81 328.287 674.649 331.622 673.772 337.095 670.81 340.056 667.831 343.035 662.855 343.48 660.154 343.48 659.963 343.48 659.782 343.478 659.612 343.474 659.549 340.793 659.864 335.446 663.032 332.278Z" stroke="#D3435A" fill="#D3435A"/><path d="M652.808 364.356C652.74 364.355 652.672 364.354 652.603 364.354 645.498 364.354 638.663 371.579 638.663 371.579 638.663 371.579 645.334 379.212 652.513 379.354 652.581 379.355 652.649 379.355 652.717 379.355 659.804 379.355 665.658 372.112 665.658 372.112 665.658 372.112 659.987 364.498 652.808 364.356ZM652.717 377.355 652.552 377.354C648.092 377.266 643.666 373.663 641.515 371.628 643.994 369.465 648.464 366.354 652.603 366.354L652.769 366.356C657.226 366.444 661.174 370.086 662.992 372.062 661.127 373.942 657.131 377.355 652.717 377.355Z" stroke="#D3435A" fill="#D3435A"/><path d="M638.666 378.499C638.598 378.497 638.529 378.497 638.461 378.497 631.356 378.497 624.521 385.721 624.521 385.721 624.521 385.721 631.192 393.354 638.37 393.496 638.438 393.497 638.507 393.498 638.575 393.498 645.662 393.498 651.516 386.254 651.516 386.254 651.516 386.254 645.844 378.64 638.666 378.499ZM638.575 391.498 638.41 391.496C633.95 391.408 629.523 387.805 627.372 385.77 629.852 383.607 634.322 380.497 638.461 380.497L638.627 380.498C643.081 380.586 647.027 384.224 648.847 386.201 646.973 388.082 642.965 391.498 638.575 391.498Z" stroke="#D3435A" fill="#D3435A"/><path d="M666.951 350.214C666.882 350.213 666.814 350.212 666.745 350.212 659.64 350.212 652.805 357.437 652.805 357.437 652.805 357.437 659.477 365.07 666.655 365.211 666.723 365.213 666.791 365.213 666.859 365.213 673.946 365.213 679.8 357.969 679.8 357.969 679.8 357.969 674.129 350.356 666.951 350.214ZM666.859 363.213 666.694 363.212C662.234 363.124 657.808 359.521 655.657 357.486 658.137 355.323 662.606 352.212 666.745 352.212L666.911 352.214C671.365 352.302 675.311 355.94 677.131 357.917 675.257 359.797 671.249 363.213 666.859 363.213Z" stroke="#D3435A" fill="#D3435A"/><path d="M631.488 364.404C631.488 364.404 638.852 357.437 638.71 350.258 638.569 343.08 630.955 337.409 630.955 337.409 630.955 337.409 623.571 343.376 623.713 350.554 623.855 357.732 631.488 364.404 631.488 364.404ZM631.011 340.074C632.988 341.887 636.622 345.819 636.711 350.298 636.799 354.752 633.382 359.311 631.432 361.544 629.394 359.389 625.801 354.968 625.713 350.515 625.625 346.059 629.107 341.971 631.011 340.074Z" stroke="#D3435A" fill="#D3435A"/><path d="M617.346 378.546C617.346 378.546 624.71 371.579 624.568 364.401 624.427 357.222 616.813 351.551 616.813 351.551 616.813 351.551 609.429 357.518 609.571 364.696 609.713 371.875 617.346 378.546 617.346 378.546ZM616.869 354.217C618.846 356.029 622.48 359.962 622.569 364.44 622.657 368.894 619.24 373.453 617.29 375.686 615.252 373.531 611.659 369.111 611.571 364.657 611.483 360.201 614.965 356.113 616.869 354.217Z" stroke="#D3435A" fill="#D3435A"/><path d="M645.63 350.261C645.63 350.261 652.994 343.294 652.852 336.116 652.711 328.938 645.097 323.267 645.097 323.267 645.097 323.267 637.714 329.234 637.855 336.412 637.997 343.59 645.63 350.261 645.63 350.261ZM645.15 325.935C647.128 327.757 650.765 331.702 650.853 336.155 650.941 340.609 647.524 345.169 645.574 347.402 643.536 345.247 639.943 340.826 639.855 336.372 639.767 331.919 643.246 327.833 645.15 325.935Z" stroke="#D3435A" fill="#D3435A"/></g></svg>