<svg width="1275" height="1268" xmlns="http://www.w3.org/2000/svg" xmlns:xlink="http://www.w3.org/1999/xlink" overflow="hidden"><defs><clipPath id="clip0"><rect x="765" y="470" width="1275" height="1268"/></clipPath></defs><g clip-path="url(#clip0)" transform="translate(-765 -470)"><path d="M1871 1241.96 1761.89 1564.82C1727.85 1666.5 1630.03 1738 1520.82 1738L1283.64 1738C1174.39 1738 1076.37 1670.17 1042.57 1564.82L939 1248.19C977.827 1264.5 1020.46 1273.53 1065.18 1273.53 1113.27 1273.53 1161.6 1260.84 1205.03 1240.03 1266.83 1268.55 1331.34 1284.73 1400.36 1284.73L1404.04 1284.73C1473.24 1284.73 1537.54 1268.52 1599.47 1240 1643.45 1260.63 1689.92 1269.67 1739.24 1269.67 1786.13 1269.67 1830.7 1259.77 1871 1241.96" fill="#C694CE" fill-rule="evenodd"/><path d="M1641 1707.27C1629.38 1713.56 1617.24 1718.99 1604.69 1723.47L1604.69 1242.46C1616.62 1247.78 1628.71 1252.26 1641 1255.96ZM1532.08 1737.74C1528.3 1737.92 1524.49 1738 1520.67 1738L1495.77 1738 1495.77 1274.96C1508.01 1272.32 1520.1 1269.2 1532.08 1265.59ZM1423.16 1738 1386.85 1738 1386.85 1284.49C1391.33 1284.63 1395.84 1284.7 1400.37 1284.7L1404.04 1284.7C1410.47 1284.7 1416.82 1284.56 1423.16 1284.3ZM1314.24 1738 1283.81 1738C1281.83 1738 1279.88 1737.98 1277.92 1737.94L1277.92 1267.25C1289.92 1270.7 1302.01 1273.66 1314.24 1276.12ZM1205.31 1725.88C1192.8 1721.9 1180.66 1716.99 1169 1711.19L1169 1255.07C1181.4 1250.7 1193.53 1245.65 1205.31 1240L1205.31 1725.88" fill="#FFFFFF" fill-rule="evenodd"/><path d="M1799.82 721.918C1766.34 638.334 1630.12 554.93 1557.37 510.502 1479.14 474.03 1384.01 464.071 1247.42 519.209 1175.12 562.479 1037.8 630.439 1001.48 725.58 869.65 755.742 775.5 872.389 775.5 1011.58 775.5 1173.43 907.341 1301.3 1065.46 1301.3 1114.36 1301.3 1163.26 1286.21 1204.83 1263.62 1264.93 1293.73 1329.14 1312.5 1400.63 1312.5L1404.31 1312.5C1475.86 1312.5 1539.83 1293.73 1600.18 1263.62 1641.5 1286.21 1686.72 1297.45 1739.49 1297.45 1901.52 1297.45 2029.5 1165.92 2029.5 1007.73 2029.5 868.667 1931.51 752.069 1799.82 721.918" stroke="#FFFFFF" stroke-width="20.625" stroke-miterlimit="8" fill="#C694CE" fill-rule="evenodd"/><path d="M1757.91 1019C1731.6 1019 1709 996.356 1709 970.095 1709 943.607 1731.6 921 1757.89 921 1784.36 921 1807 943.607 1807 970.095 1807 996.356 1784.36 1019 1757.91 1019" fill="#FFFFFF" fill-rule="evenodd"/><path d="M1637.51 842C1611.07 842 1592 819.172 1592 796.585 1592 769.882 1614.77 751 1637.51 751 1663.96 750.988 1683 773.769 1683 796.585 1683 823.06 1663.96 842 1637.51 842" fill="#FFFFFF" fill-rule="evenodd"/><path d="M1403.97 1105C1370.18 1105 1340 1074.86 1340 1040.99 1340 1006.96 1370.18 977 1403.97 977 1437.82 977 1468 1006.96 1468 1040.99 1468 1078.71 1437.82 1105 1403.97 1105" fill="#FFFFFF" fill-rule="evenodd"/><path d="M1167.3 842C1141.01 842 1122 819.172 1122 796.585 1122 769.882 1144.68 751 1167.3 751 1189.98 750.988 1212.61 773.769 1212.61 796.585 1216.28 823.06 1193.66 842 1167.3 842" fill="#FFFFFF" fill-rule="evenodd"/><path d="M1047.09 1019C1020.59 1019 998 996.356 998 970.095 998 943.607 1020.59 921 1047.09 921 1073.37 921 1096 943.607 1096 970.095 1096 996.356 1077.04 1019 1047.09 1019" fill="#FFFFFF" fill-rule="evenodd"/><path d="M1402.5 690C1379.52 690 1359 669.515 1359 646.5 1359 623.354 1379.52 603 1402.5 603 1425.49 603 1446 623.354 1446 646.5 1446 672.13 1425.49 690 1402.5 690" fill="#FFFFFF" fill-rule="evenodd"/></g></svg>