<svg width="96" height="96" xmlns="http://www.w3.org/2000/svg" xmlns:xlink="http://www.w3.org/1999/xlink" overflow="hidden"><defs><clipPath id="clip0"><rect x="145" y="231" width="96" height="96"/></clipPath></defs><g clip-path="url(#clip0)" transform="translate(-145 -231)"><path d="M222.64 242 163.36 242 157 255.78 157 261C157.003 263.54 158.605 265.803 161 266.65L161 317 163 317 163 267 165.1 267C167.967 266.998 170.608 265.443 172 262.937 173.392 265.443 176.033 266.998 178.9 267L179.1 267C181.967 266.998 184.608 265.443 186 262.937 187.392 265.443 190.033 266.998 192.9 267L193.1 267C195.967 266.998 198.608 265.443 200 262.937 201.392 265.443 204.033 266.998 206.9 267L207.1 267C209.967 266.998 212.608 265.443 214 262.937 215.392 265.443 218.033 266.998 220.9 267L223 267 223 317 225 317 225 266.65C227.395 265.803 228.997 263.54 229 261L229 255.78ZM165.1 265 163 265C160.791 265 159 263.209 159 261L159 256.22 164.64 244 175.54 244 171 255.814 171 259.1C170.997 262.357 168.357 264.997 165.1 265ZM185 256 185 259.1C184.997 262.357 182.357 264.997 179.1 265L178.9 265C175.643 264.997 173.003 262.357 173 259.1L173 256.186 177.687 244 186.835 244 185.012 255.848ZM193.1 265 192.9 265C189.643 264.997 187.003 262.357 187 259.1L187 256.077 188.858 244 197.142 244 199 256.077 199 259.1C198.997 262.357 196.357 264.997 193.1 265ZM207.1 265 206.9 265C203.643 264.997 201.003 262.357 201 259.1L201 256 199.164 244 208.313 244 213 256.186 213 259.1C212.997 262.357 210.357 264.997 207.1 265ZM227 261C227 263.209 225.209 265 223 265L220.9 265C217.643 264.997 215.003 262.357 215 259.1L215 255.814 210.456 244 221.356 244 227 256.22Z" stroke="#D3435A" fill="#D3435A"/><path d="M169.117 278 166.008 302.876 166 317 168 317 168 312 218 312 218 317 220 317 220 303 216.883 278ZM168 310 168 308 218 308 218 310ZM218 306 168 306 168 303.063 170.883 280 215.117 280 218 303.063Z" stroke="#D3435A" fill="#D3435A"/><path d="M189 288C189 285.791 185.508 284 181.2 284 176.892 284 173.4 285.791 173.4 288 173.506 289.073 174.155 290.017 175.12 290.5 173.739 291.029 173.049 292.577 173.577 293.957 173.849 294.667 174.41 295.228 175.12 295.5 174.156 295.983 173.506 296.927 173.4 298 173.4 300.209 176.892 302 181.2 302 185.508 302 189 300.209 189 298 188.894 296.927 188.245 295.983 187.28 295.5 188.661 294.971 189.351 293.423 188.823 292.043 188.551 291.333 187.99 290.772 187.28 290.5 188.245 290.017 188.894 289.073 189 288ZM181.2 300C177.457 300 175.4 298.5 175.4 298 175.4 297.5 177.457 296 181.2 296 184.943 296 187 297.5 187 298 187 298.5 184.943 300 181.2 300ZM181.2 294C179.986 293.995 178.775 294.147 177.6 294.453 176.168 293.972 175.4 293.3 175.4 293 175.4 292.5 177.457 291 181.2 291 184.943 291 187 292.5 187 293 187 293.3 186.232 293.972 184.8 294.453 183.625 294.147 182.415 293.995 181.2 294ZM181.2 289C179.986 288.995 178.775 289.147 177.6 289.453 176.168 288.972 175.4 288.3 175.4 288 175.4 287.5 177.457 286 181.2 286 184.943 286 187 287.5 187 288 187 288.3 186.232 288.972 184.8 289.453 183.625 289.147 182.415 288.995 181.2 289Z" stroke="#D3435A" fill="#D3435A"/><path d="M202 290C202.005 287.239 199.77 284.996 197.009 284.991 194.247 284.986 192.005 287.221 192 289.982 191.998 291.298 192.514 292.562 193.438 293.5 191.5 295.467 191.524 298.633 193.491 300.571 195.458 302.509 198.624 302.485 200.562 300.518 202.479 298.571 202.479 295.446 200.562 293.5 201.484 292.568 202.001 291.31 202 290ZM197 287C198.651 286.994 199.994 288.328 199.999 289.979 200.003 290.91 199.571 291.79 198.833 292.358 197.658 291.881 196.342 291.881 195.167 292.358 193.859 291.351 193.614 289.475 194.621 288.166 195.189 287.428 196.068 286.997 197 287ZM197 300C195.343 300 194 298.657 194 297 194 295.343 195.343 294 197 294 198.657 294 200 295.343 200 297 200 298.657 198.657 300 197 300Z" stroke="#D3435A" fill="#D3435A"/><path d="M213 290C213.005 287.239 210.77 284.996 208.009 284.991 205.247 284.986 203.005 287.221 203 289.982 202.998 291.298 203.514 292.562 204.438 293.5 202.5 295.467 202.524 298.633 204.491 300.571 206.458 302.509 209.624 302.485 211.562 300.518 213.479 298.571 213.479 295.446 211.562 293.5 212.484 292.568 213.001 291.31 213 290ZM208 287C209.651 286.994 210.994 288.328 210.999 289.979 211.003 290.91 210.571 291.79 209.833 292.358 208.658 291.881 207.342 291.881 206.167 292.358 204.859 291.351 204.614 289.475 205.621 288.166 206.189 287.428 207.068 286.997 208 287ZM208 300C206.343 300 205 298.657 205 297 205 295.343 206.343 294 208 294 209.657 294 211 295.343 211 297 211 298.657 209.657 300 208 300Z" stroke="#D3435A" fill="#D3435A"/></g></svg>